<svg width="24" height="24" viewBox="0 0 24 24" fill="none" xmlns="http://www.w3.org/2000/svg">
<g clip-path="url(#clip0_7053_232579)">
<path d="M23.4652 0.52002H7.28516V21.82H23.4652V0.52002Z" fill="white"/>
<path d="M23.4652 22.32H7.28516C7.01016 22.32 6.78516 22.095 6.78516 21.82V0.52002C6.78516 0.245019 7.01016 0.0200195 7.28516 0.0200195H23.4652C23.7402 0.0200195 23.9652 0.245019 23.9652 0.52002V21.82C23.9652 22.095 23.7402 22.32 23.4652 22.32ZM7.78516 21.32H22.9652V1.02002H7.78516V21.32Z" fill="#001149"/>
<path d="M10.1105 3.35537C10.0205 3.35537 9.94553 3.32537 9.88553 3.27037C9.82053 3.21537 9.79053 3.14037 9.79053 3.05537C9.79053 2.97037 9.82053 2.89037 9.88553 2.83537C9.95053 2.78037 10.0255 2.75537 10.1105 2.75537H12.9655C13.0555 2.75537 13.1355 2.78537 13.1955 2.84037C13.2555 2.89537 13.2855 2.97037 13.2855 3.05537C13.2855 3.14537 13.2555 3.22037 13.1955 3.27537C13.1355 3.33037 13.0605 3.35537 12.9655 3.35537H10.1105ZM11.5405 7.15537C11.4405 7.15537 11.3605 7.12537 11.2955 7.06537C11.2305 7.00537 11.2005 6.93037 11.2005 6.83537V3.06537H11.8805V6.83037C11.8805 6.92037 11.8455 7.00037 11.7805 7.06037C11.7155 7.12037 11.6355 7.15037 11.5405 7.15037V7.15537Z" fill="#001149"/>
<path d="M11.5404 7.29498C11.4004 7.29498 11.2854 7.24998 11.1954 7.16498C11.1054 7.07498 11.0554 6.95998 11.0554 6.82998V3.49998H10.1154C9.99039 3.49998 9.88039 3.45998 9.79039 3.37498C9.70039 3.29498 9.65039 3.17998 9.65039 3.04998C9.65039 2.91998 9.70039 2.79998 9.79539 2.71998C9.88539 2.63998 9.99539 2.60498 10.1154 2.60498H12.9704C13.1004 2.60498 13.2104 2.64498 13.3004 2.72998C13.3904 2.81498 13.4404 2.92498 13.4404 3.05498C13.4404 3.18498 13.3904 3.30498 13.3004 3.38498C13.2154 3.46498 13.1054 3.50498 12.9754 3.50498H12.0354V6.83498C12.0354 6.96498 11.9854 7.08498 11.8904 7.16998C11.8004 7.25498 11.6854 7.29998 11.5504 7.29998L11.5404 7.29498ZM11.3454 3.49498V6.82498C11.3454 6.87498 11.3604 6.91498 11.3954 6.94998C11.4154 6.96998 11.4554 6.99998 11.5404 6.99998C11.6004 6.99998 11.6454 6.98498 11.6804 6.94998C11.7154 6.91498 11.7304 6.87998 11.7304 6.82498V3.49998H11.3454V3.49498ZM12.0254 3.20498H12.9654C13.0204 3.20498 13.0654 3.18998 13.0954 3.15998C13.1154 3.13998 13.1354 3.11498 13.1354 3.04998C13.1354 3.00498 13.1204 2.96998 13.0904 2.93998C13.0554 2.90998 13.0154 2.89498 12.9604 2.89498H10.1054C10.0504 2.89498 10.0104 2.90998 9.97539 2.93998C9.95539 2.95998 9.93039 2.98498 9.93039 3.04998C9.93039 3.09498 9.94539 3.12998 9.97539 3.15998C10.0104 3.19498 10.0504 3.20998 10.1054 3.20998H11.0454V2.91998H12.0154V3.20998L12.0254 3.20498Z" fill="#001149"/>
<path d="M15.2555 3.57492L13.8405 6.96492C13.8155 7.02992 13.7755 7.08492 13.7255 7.11992C13.6755 7.15992 13.6205 7.17492 13.5555 7.17492C13.4605 7.17492 13.3855 7.14992 13.3405 7.09492C13.2955 7.04492 13.2705 6.97492 13.2705 6.89492C13.2705 6.86492 13.2755 6.82992 13.2905 6.79492L14.8855 2.93492C14.9105 2.86492 14.9505 2.80992 15.0055 2.76992C15.0605 2.72992 15.1255 2.71492 15.1905 2.71992C15.2555 2.71992 15.3205 2.73992 15.3705 2.77492C15.4255 2.81492 15.4655 2.86492 15.4905 2.92992L17.0705 6.73492C17.0855 6.77492 17.0955 6.81992 17.0955 6.85992C17.0955 6.94992 17.0655 7.02492 17.0055 7.08492C16.9455 7.13992 16.8755 7.16992 16.8005 7.16992C16.7355 7.16992 16.6805 7.14992 16.6255 7.10992C16.5705 7.06992 16.5355 7.01992 16.5105 6.95492L15.0855 3.57992L15.2505 3.56992L15.2555 3.57492ZM14.0905 6.06992L14.3755 5.46492H16.1555L16.2605 6.06992H14.0905Z" fill="#001149"/>
<path d="M16.8104 7.32498C16.7154 7.32498 16.6254 7.29498 16.5504 7.23498C16.4754 7.17998 16.4204 7.10498 16.3854 7.01998L16.0454 6.21998H14.3104L13.9754 7.02498C13.9404 7.11498 13.8904 7.18998 13.8154 7.24498C13.6254 7.38498 13.3604 7.34498 13.2354 7.20498C13.1654 7.12498 13.1304 7.02498 13.1304 6.90998C13.1304 6.86498 13.1404 6.81498 13.1554 6.76498L14.7554 2.89498C14.7854 2.79998 14.8454 2.71998 14.9304 2.66498C15.0154 2.60998 15.1104 2.58498 15.2054 2.58998C15.2904 2.58998 15.3804 2.61498 15.4604 2.66998C15.5404 2.72498 15.5954 2.79998 15.6354 2.89498L17.2104 6.69498C17.2354 6.75498 17.2454 6.81498 17.2454 6.87498C17.2454 7.00498 17.2004 7.11998 17.1104 7.20498C17.0204 7.28998 16.9204 7.32998 16.8054 7.32998L16.8104 7.32498ZM16.3654 6.21998L16.6554 6.90998C16.6704 6.94998 16.6954 6.97998 16.7254 7.00498C16.7704 7.03998 16.8104 7.08498 16.9154 6.98998C16.9354 6.96998 16.9604 6.93998 16.9604 6.87498C16.9604 6.84998 16.9604 6.82998 16.9454 6.79998L15.3704 2.99998C15.3554 2.95498 15.3304 2.92498 15.3004 2.90498C15.2654 2.88498 15.2254 2.87498 15.1854 2.87498C15.1504 2.87498 15.1254 2.88498 15.0954 2.89998C15.0654 2.91998 15.0454 2.94998 15.0304 2.98998L13.4304 6.85998C13.4304 6.85998 13.4254 6.89498 13.4254 6.90498C13.4254 6.96498 13.4454 6.98998 13.4554 7.00498C13.4854 7.03498 13.5754 7.05998 13.6404 7.00498C13.6704 6.98498 13.6904 6.95498 13.7054 6.91498L13.9954 6.21998H13.8654L14.2854 5.32498H14.3704L15.0154 3.77998L14.8804 3.45998L15.4854 3.41498L15.3354 3.77998L15.9904 5.32498H16.2854L16.4454 6.21998H16.3704H16.3654ZM14.4354 5.92998H15.9254L15.7954 5.61998H14.5654L14.4354 5.92998ZM14.6854 5.32498H15.6654L15.1704 4.15498L14.6804 5.32498H14.6854Z" fill="#001149"/>
<path d="M17.7507 7.18511C17.6707 7.18511 17.6057 7.15511 17.5507 7.09511C17.4957 7.03511 17.4707 6.97011 17.4707 6.90011C17.4707 6.83011 17.4957 6.76011 17.5457 6.68511L18.8807 4.88011L19.2257 5.39011L18.0107 7.03011C17.9457 7.13011 17.8557 7.18011 17.7507 7.18011V7.18511ZM17.7957 2.73511C17.8957 2.73511 17.9807 2.78011 18.0557 2.87511L20.8907 6.68011C20.9357 6.73511 20.9607 6.79511 20.9607 6.87011C20.9607 6.97011 20.9257 7.05011 20.8557 7.10511C20.7857 7.16011 20.7107 7.19011 20.6407 7.19011C20.5407 7.19011 20.4557 7.14511 20.3807 7.05011L17.5457 3.24511C17.5007 3.19011 17.4757 3.13011 17.4757 3.05511C17.4757 2.96511 17.5107 2.88511 17.5757 2.82511C17.6407 2.76511 17.7157 2.73511 17.7957 2.73511ZM20.6607 2.74011C20.7457 2.74011 20.8157 2.77011 20.8707 2.83011C20.9257 2.89011 20.9557 2.95511 20.9557 3.03011C20.9557 3.09511 20.9307 3.16011 20.8857 3.22511L19.5657 4.99011L19.2057 4.49511L20.4057 2.89011C20.4757 2.79011 20.5607 2.74011 20.6557 2.74011H20.6607Z" fill="#001149"/>
<path d="M20.6354 7.33C20.5354 7.33 20.3854 7.295 20.2604 7.135L19.1804 5.69L18.1204 7.12C18.0054 7.29 17.8504 7.33 17.7454 7.33C17.6254 7.33 17.5204 7.285 17.4354 7.195C17.3554 7.11 17.3154 7.01 17.3154 6.9C17.3154 6.8 17.3504 6.7 17.4154 6.605L18.6304 4.96L17.4154 3.33C17.3504 3.255 17.3154 3.16 17.3154 3.055C17.3154 2.92 17.3654 2.805 17.4654 2.715C17.6704 2.525 17.9804 2.555 18.1554 2.78L19.2254 4.215L20.2854 2.805C20.4054 2.63 20.5554 2.595 20.6554 2.595C20.7804 2.595 20.8904 2.645 20.9754 2.735C21.0554 2.82 21.1004 2.925 21.1004 3.03C21.1004 3.13 21.0654 3.22 21.0004 3.31L19.7754 4.95L21.0004 6.59C21.0604 6.665 21.1004 6.76 21.1004 6.865C21.1004 7.01 21.0454 7.13 20.9354 7.215C20.8354 7.29 20.7354 7.33 20.6304 7.33H20.6354ZM19.3654 5.445L20.4954 6.96C20.6054 7.1 20.6704 7.06 20.7604 6.985C20.7854 6.965 20.8104 6.935 20.8104 6.865C20.8104 6.83 20.8004 6.8 20.7754 6.77L19.6004 5.19L19.5654 5.235L19.0254 4.49L19.0504 4.455L17.9304 2.955C17.8104 2.805 17.7404 2.86 17.6704 2.93C17.6354 2.965 17.6154 3 17.6154 3.05C17.6154 3.085 17.6254 3.115 17.6504 3.145L18.8154 4.71L18.8754 4.63L19.3954 5.395L19.3604 5.44L19.3654 5.445ZM18.8204 5.205L17.6604 6.78C17.6304 6.825 17.6154 6.865 17.6154 6.905C17.6154 6.925 17.6154 6.96 17.6604 7C17.7104 7.055 17.7904 7.105 17.8904 6.955L19.0054 5.445L18.8254 5.205H18.8204ZM19.4154 4.46L19.6004 4.705L20.7704 3.14C20.7954 3.105 20.8104 3.07 20.8104 3.03C20.8104 3.01 20.8104 2.975 20.7654 2.93C20.7354 2.9 20.7054 2.885 20.6604 2.885C20.6404 2.885 20.5904 2.885 20.5304 2.975L19.4204 4.46H19.4154Z" fill="#001149"/>
<path d="M20.9603 11.2H9.88525C9.61025 11.2 9.38525 10.975 9.38525 10.7C9.38525 10.425 9.61025 10.2 9.88525 10.2H20.9603C21.2353 10.2 21.4603 10.425 21.4603 10.7C21.4603 10.975 21.2353 11.2 20.9603 11.2Z" fill="#001149"/>
<path d="M20.9603 14.99H9.88525C9.61025 14.99 9.38525 14.765 9.38525 14.49C9.38525 14.215 9.61025 13.99 9.88525 13.99H20.9603C21.2353 13.99 21.4603 14.215 21.4603 14.49C21.4603 14.765 21.2353 14.99 20.9603 14.99Z" fill="#001149"/>
<path d="M20.9603 18.78H9.88525C9.61025 18.78 9.38525 18.555 9.38525 18.28C9.38525 18.005 9.61025 17.78 9.88525 17.78H20.9603C21.2353 17.78 21.4603 18.005 21.4603 18.28C21.4603 18.555 21.2353 18.78 20.9603 18.78Z" fill="#001149"/>
<path d="M10.7251 21.81L10.7251 8.94C10.7251 8.00664 9.96846 7.25 9.0351 7.25L2.1801 7.25C1.24674 7.25 0.490097 8.00664 0.490097 8.94L0.490097 21.81C0.490097 22.7434 1.24674 23.5 2.1801 23.5H9.0351C9.96846 23.5 10.7251 22.7434 10.7251 21.81Z" fill="white"/>
<path d="M9.04012 24H2.18512C0.975117 24 -0.00488281 23.02 -0.00488281 21.81V8.94C-0.00488281 7.73 0.975117 6.75 2.18512 6.75H9.04012C10.2451 6.75 11.2301 7.73 11.2301 8.94V21.815C11.2301 23.02 10.2501 24.005 9.04012 24.005V24ZM2.18512 7.75C1.53012 7.75 0.995117 8.285 0.995117 8.94V21.815C0.995117 22.47 1.53012 23.005 2.18512 23.005H9.04012C9.69512 23.005 10.2301 22.47 10.2301 21.815V8.94C10.2301 8.285 9.69512 7.75 9.04012 7.75H2.18512Z" fill="#001149"/>
<path d="M9.33988 9.18481H1.87988V11.4148H9.33988V9.18481Z" fill="white"/>
<path d="M9.33988 11.9199H1.87988C1.60488 11.9199 1.37988 11.6949 1.37988 11.4199V9.18994C1.37988 8.91494 1.60488 8.68994 1.87988 8.68994H9.33988C9.61488 8.68994 9.83988 8.91494 9.83988 9.18994V11.4199C9.83988 11.6949 9.61488 11.9199 9.33988 11.9199ZM2.37988 10.9199H8.83988V9.68994H2.37988V10.9199Z" fill="#001149"/>
<path d="M8.80039 12.98H8.05539C7.76268 12.98 7.52539 13.2173 7.52539 13.51V14.255C7.52539 14.5477 7.76268 14.785 8.05539 14.785H8.80039C9.0931 14.785 9.33039 14.5477 9.33039 14.255V13.51C9.33039 13.2173 9.0931 12.98 8.80039 12.98Z" fill="#001149"/>
<path d="M8.80039 15.3049H8.05539C7.76268 15.3049 7.52539 15.5422 7.52539 15.8349V16.5799C7.52539 16.8726 7.76268 17.1099 8.05539 17.1099H8.80039C9.0931 17.1099 9.33039 16.8726 9.33039 16.5799V15.8349C9.33039 15.5422 9.0931 15.3049 8.80039 15.3049Z" fill="#001149"/>
<path d="M8.80039 17.625H8.05539C7.76268 17.625 7.52539 17.8623 7.52539 18.155V21.225C7.52539 21.5177 7.76268 21.755 8.05539 21.755H8.80039C9.0931 21.755 9.33039 21.5177 9.33039 21.225V18.155C9.33039 17.8623 9.0931 17.625 8.80039 17.625Z" fill="#001149"/>
<path d="M3.15537 12.98H2.41037C2.11766 12.98 1.88037 13.2173 1.88037 13.51V14.255C1.88037 14.5477 2.11766 14.785 2.41037 14.785H3.15537C3.44808 14.785 3.68537 14.5477 3.68537 14.255V13.51C3.68537 13.2173 3.44808 12.98 3.15537 12.98Z" fill="#001149"/>
<path d="M3.15537 15.3049H2.41037C2.11766 15.3049 1.88037 15.5422 1.88037 15.8349V16.5799C1.88037 16.8726 2.11766 17.1099 2.41037 17.1099H3.15537C3.44808 17.1099 3.68537 16.8726 3.68537 16.5799V15.8349C3.68537 15.5422 3.44808 15.3049 3.15537 15.3049Z" fill="#001149"/>
<path d="M3.15537 17.625H2.41037C2.11766 17.625 1.88037 17.8623 1.88037 18.155V18.9C1.88037 19.1927 2.11766 19.43 2.41037 19.43H3.15537C3.44808 19.43 3.68537 19.1927 3.68537 18.9V18.155C3.68537 17.8623 3.44808 17.625 3.15537 17.625Z" fill="#001149"/>
<path d="M3.15537 19.95H2.41037C2.11766 19.95 1.88037 20.1872 1.88037 20.4799V21.225C1.88037 21.5177 2.11766 21.7549 2.41037 21.7549H3.15537C3.44808 21.7549 3.68537 21.5177 3.68537 21.225V20.4799C3.68537 20.1872 3.44808 19.95 3.15537 19.95Z" fill="#001149"/>
<path d="M5.98057 12.98H5.23557C4.94286 12.98 4.70557 13.2173 4.70557 13.51V14.255C4.70557 14.5477 4.94286 14.785 5.23557 14.785H5.98057C6.27328 14.785 6.51057 14.5477 6.51057 14.255V13.51C6.51057 13.2173 6.27328 12.98 5.98057 12.98Z" fill="#001149"/>
<path d="M5.98057 15.3049H5.23557C4.94286 15.3049 4.70557 15.5422 4.70557 15.8349V16.5799C4.70557 16.8726 4.94286 17.1099 5.23557 17.1099H5.98057C6.27328 17.1099 6.51057 16.8726 6.51057 16.5799V15.8349C6.51057 15.5422 6.27328 15.3049 5.98057 15.3049Z" fill="#001149"/>
<path d="M5.98057 17.625H5.23557C4.94286 17.625 4.70557 17.8623 4.70557 18.155V18.9C4.70557 19.1927 4.94286 19.43 5.23557 19.43H5.98057C6.27328 19.43 6.51057 19.1927 6.51057 18.9V18.155C6.51057 17.8623 6.27328 17.625 5.98057 17.625Z" fill="#001149"/>
<path d="M5.98057 19.95H5.23557C4.94286 19.95 4.70557 20.1872 4.70557 20.4799V21.225C4.70557 21.5177 4.94286 21.7549 5.23557 21.7549H5.98057C6.27328 21.7549 6.51057 21.5177 6.51057 21.225V20.4799C6.51057 20.1872 6.27328 19.95 5.98057 19.95Z" fill="#001149"/>
<path d="M9.33988 11.9199H1.87988C1.60488 11.9199 1.37988 11.6949 1.37988 11.4199C1.37988 11.1449 1.60488 10.9199 1.87988 10.9199H9.33988C9.61488 10.9199 9.83988 11.1449 9.83988 11.4199C9.83988 11.6949 9.61488 11.9199 9.33988 11.9199Z" fill="#001149"/>
</g>
<defs>
<clipPath id="clip0_7053_232579">
<rect width="24" height="24" fill="white"/>
</clipPath>
</defs>
</svg>
