<svg width="24" height="24" viewBox="0 0 24 24" fill="none" xmlns="http://www.w3.org/2000/svg">
<g clip-path="url(#clip0_7053_232527)">
<path d="M9.74021 9.88498V6.42498C9.74021 4.24498 7.97521 2.47998 5.79521 2.47998H2.52021C1.87021 2.47998 1.34521 3.00498 1.34521 3.65498C1.34521 4.30498 1.87021 4.82998 2.52021 4.82998H3.84021V5.94998C3.84021 6.59998 4.36521 7.12498 5.01521 7.12498H6.52522V8.42498C6.52522 9.22998 7.18022 9.88498 7.98522 9.88998H9.74521L9.74021 9.88498Z" fill="white"/>
<path d="M9.74021 10.3851H7.98022C6.90022 10.3801 6.02022 9.5001 6.02022 8.4201V7.6201H5.01021C4.08521 7.6201 3.33521 6.8701 3.33521 5.9451V5.3251H2.52021C1.59521 5.3251 0.845215 4.5751 0.845215 3.6501C0.845215 2.7251 1.59521 1.9751 2.52021 1.9751H5.79521C8.24521 1.9751 10.2402 3.9701 10.2402 6.4201V9.8801C10.2402 10.0151 10.1852 10.1401 10.0952 10.2351C10.0002 10.3301 9.87521 10.3801 9.74021 10.3801V10.3851ZM2.52021 2.9801C2.15021 2.9801 1.84521 3.2851 1.84521 3.6551C1.84521 4.0251 2.15021 4.3301 2.52021 4.3301H3.83521C4.11021 4.3301 4.33521 4.5551 4.33521 4.8301V5.9501C4.33521 6.3201 4.64021 6.6251 5.01021 6.6251H6.52022C6.79522 6.6251 7.02022 6.8501 7.02022 7.1251V8.4251C7.02022 8.9551 7.45022 9.3851 7.98022 9.3901H9.24021V6.4301C9.24021 4.5301 7.69521 2.9851 5.79521 2.9851H2.52021V2.9801Z" fill="#001149"/>
<path d="M5.54045 5.32495H3.83545C3.56045 5.32495 3.33545 5.09995 3.33545 4.82495C3.33545 4.54995 3.56045 4.32495 3.83545 4.32495H5.54045C5.81545 4.32495 6.04045 4.54995 6.04045 4.82495C6.04045 5.09995 5.81545 5.32495 5.54045 5.32495Z" fill="#001149"/>
<path d="M7.44025 7.61499H6.13525C5.86025 7.61499 5.63525 7.38999 5.63525 7.11499C5.63525 6.83999 5.86025 6.61499 6.13525 6.61499H7.44025C7.71525 6.61499 7.94025 6.83999 7.94025 7.11499C7.94025 7.38999 7.71525 7.61499 7.44025 7.61499Z" fill="#001149"/>
<path d="M13.4155 14.08L16.8255 12.555C18.8205 11.66 21.1605 12.545 22.0705 14.53L23.4205 17.48C23.6955 18.085 23.4305 18.795 22.8255 19.065L22.7955 19.08C22.1855 19.355 21.4805 19.08 21.2205 18.47C20.9605 17.86 20.7005 17.29 20.7005 17.29L19.6805 17.745C19.0905 18.01 18.3955 17.745 18.1305 17.155L17.5155 15.78L16.3255 16.315C15.5755 16.65 14.6905 16.36 14.2905 15.64L13.4255 14.09L13.4155 14.08Z" fill="white"/>
<path d="M22.2904 19.6801C22.0854 19.6801 21.8804 19.6401 21.6854 19.5651C21.2604 19.4001 20.9304 19.0801 20.7504 18.6651C20.6404 18.4101 20.5254 18.1551 20.4354 17.9451L19.8754 18.1951C19.4654 18.3801 19.0104 18.3901 18.5954 18.2301C18.1754 18.0701 17.8454 17.7601 17.6654 17.3501L17.2554 16.4301L16.5204 16.7601C15.5254 17.2051 14.3754 16.8251 13.8454 15.8701L12.9804 14.3201C12.9104 14.2001 12.9004 14.0501 12.9404 13.9201C12.9854 13.7851 13.0804 13.6801 13.2104 13.6201L16.6204 12.0951C18.8554 11.0901 21.5054 12.0901 22.5254 14.3201L23.8754 17.2701C24.0654 17.6851 24.0804 18.1451 23.9204 18.5701C23.7604 18.9951 23.4454 19.3351 23.0304 19.5201C22.7904 19.6301 22.5404 19.6801 22.3004 19.6801H22.2904ZM20.6904 16.7851C20.7504 16.7851 20.8104 16.7951 20.8704 16.8201C20.9954 16.8651 21.0954 16.9601 21.1504 17.0851C21.1504 17.0851 21.4204 17.6851 21.6704 18.2751C21.7454 18.4451 21.8804 18.5751 22.0504 18.6401C22.2254 18.7051 22.4154 18.7001 22.5854 18.6251C22.7854 18.5351 22.9154 18.4001 22.9804 18.2251C23.0454 18.0501 23.0404 17.8601 22.9604 17.6901L21.6104 14.7401C20.8204 13.0101 18.7604 12.2351 17.0254 13.0151L14.1154 14.3201L14.7154 15.3951C14.9904 15.8901 15.5904 16.0901 16.1104 15.8551L17.3004 15.3201C17.5554 15.2101 17.8504 15.3201 17.9604 15.5701L18.5754 16.9451C18.6504 17.1101 18.7804 17.2351 18.9504 17.3001C19.1204 17.3651 19.3004 17.3601 19.4654 17.2851L20.4854 16.8251C20.5504 16.7951 20.6204 16.7801 20.6904 16.7801V16.7851Z" fill="#001149"/>
<path d="M20.6952 17.785C20.5052 17.785 20.3202 17.675 20.2402 17.49L19.5452 15.935C19.4302 15.685 19.5452 15.385 19.7952 15.275C20.0452 15.16 20.3452 15.275 20.4552 15.525L21.1502 17.08C21.2652 17.33 21.1502 17.63 20.9002 17.74C20.8352 17.77 20.7652 17.785 20.6952 17.785Z" fill="#001149"/>
<path d="M17.6656 16.6199C17.4756 16.6199 17.2906 16.5099 17.2106 16.3249L16.6756 15.1349C16.5606 14.8849 16.6756 14.5849 16.9256 14.4749C17.1756 14.3599 17.4756 14.4749 17.5856 14.7249L18.1206 15.9149C18.2356 16.1649 18.1206 16.4649 17.8706 16.5749C17.8056 16.6049 17.7356 16.6199 17.6656 16.6199Z" fill="#001149"/>
<path d="M18.01 9.99478C14.96 13.9848 10.915 17.6398 5.98002 20.5648C3.90502 18.8748 2.04002 17.0548 0.39502 15.1448C5.27002 12.8048 9.32502 9.67979 12.42 6.15479C14.095 7.56479 15.965 8.85979 18.01 9.99978V9.99478Z" fill="white"/>
<path d="M5.97983 21.0651C5.86483 21.0651 5.75483 21.0251 5.66483 20.9501C3.60483 19.2701 1.69983 17.4301 0.0148269 15.4701C-0.0851731 15.3501 -0.130173 15.1951 -0.0951731 15.0401C-0.0651731 14.8901 0.0398269 14.7601 0.179827 14.6901C4.78983 12.4801 8.88983 9.41008 12.0498 5.82008C12.2298 5.61508 12.5398 5.59508 12.7498 5.77008C14.4248 7.18507 16.2798 8.46008 18.2598 9.56008C18.3848 9.63008 18.4748 9.75508 18.5048 9.89508C18.5348 10.0351 18.5048 10.1851 18.4148 10.3001C15.1898 14.5201 11.0948 18.1201 6.23983 20.9951C6.15983 21.0401 6.07483 21.0651 5.98483 21.0651H5.97983ZM1.19983 15.3051C2.66483 16.9501 4.28483 18.5151 6.02483 19.9551C10.4648 17.2801 14.2398 13.9851 17.2598 10.1451C15.5548 9.16508 13.9498 8.05507 12.4698 6.84507C9.40983 10.2301 5.52983 13.1401 1.19983 15.3051Z" fill="#001149"/>
<path d="M14.7546 11.0901C12.5446 13.5101 9.92459 15.7501 6.92959 17.7101C6.12459 17.5201 5.33459 17.3151 4.54459 17.0851C4.42459 16.4651 4.30959 15.8451 4.20459 15.2251C7.18959 13.4451 9.80959 11.3701 12.0296 9.1001C12.6996 9.2001 13.3796 9.2851 14.0646 9.3501C14.2846 9.9301 14.5146 10.5101 14.7546 11.0901Z" fill="#001149"/>
<path d="M10.3447 12.975C10.6847 13.245 10.6997 13.695 10.3597 13.975C10.0197 14.255 9.45969 14.255 9.11969 13.975C8.77969 13.695 8.79469 13.245 9.13469 12.975C9.47469 12.705 10.0097 12.705 10.3447 12.975Z" fill="white"/>
</g>
<defs>
<clipPath id="clip0_7053_232527">
<rect width="24" height="24" fill="white"/>
</clipPath>
</defs>
</svg>
