<svg width="24" height="24" viewBox="0 0 24 24" fill="none" xmlns="http://www.w3.org/2000/svg">
<path d="M3.91498 1.41013C3.91498 0.910309 3.5098 0.505127 3.00998 0.505127C2.51016 0.505127 2.10498 0.910309 2.10498 1.41013V22.5801C2.10498 23.0799 2.51016 23.4851 3.00998 23.4851C3.5098 23.4851 3.91498 23.0799 3.91498 22.5801V1.41013Z" fill="white"/>
<path d="M3.0101 23.99C2.2351 23.99 1.6001 23.355 1.6001 22.58V1.41C1.6001 0.63 2.2351 0 3.0101 0C3.7851 0 4.4201 0.63 4.4201 1.41V22.58C4.4201 23.355 3.7851 23.99 3.0101 23.99ZM3.0101 1.01C2.7901 1.01 2.6101 1.19 2.6101 1.41V22.58C2.6101 22.8 2.7901 22.98 3.0101 22.98C3.2301 22.98 3.4101 22.8 3.4101 22.58V1.41C3.4101 1.19 3.2301 1.01 3.0101 1.01Z" fill="#001149"/>
<path d="M23.48 2.81494H2.10498V12.4749H23.48V2.81494Z" fill="white"/>
<path d="M23.485 12.9749H2.10498C1.82998 12.9749 1.60498 12.7499 1.60498 12.4749V2.81494C1.60498 2.53994 1.82998 2.31494 2.10498 2.31494H23.485C23.76 2.31494 23.985 2.53994 23.985 2.81494V12.4749C23.985 12.7499 23.76 12.9749 23.485 12.9749ZM2.60498 11.9749H22.985V3.31494H2.60498V11.9749Z" fill="#001149"/>
<path d="M14.52 2.81494H2.10498V10.0599H14.52V2.81494Z" fill="#001149"/>
<path d="M4.00004 6.92998C5.22004 6.92998 5.59504 6.55498 5.59504 5.31498V5.22998H5.96004V5.31498C5.96004 6.54998 6.33004 6.92998 7.55504 6.92998H7.64004V7.29998H7.55504C6.33504 7.29998 5.96004 7.67498 5.96004 8.91498V8.99998H5.59504V8.91498C5.59504 7.67998 5.22504 7.29998 4.00004 7.29998H3.91504V6.92998H4.00004Z" fill="white"/>
<path d="M9.15482 5.45513C10.3748 5.45513 10.7498 5.08013 10.7498 3.84013V3.75513H11.1148V3.84013C11.1148 5.07513 11.4848 5.45513 12.7098 5.45513H12.7948V5.82513H12.7098C11.4898 5.82513 11.1148 6.20013 11.1148 7.44013V7.52513H10.7498V7.44013C10.7498 6.20513 10.3798 5.82513 9.15482 5.82513H9.06982V5.45513H9.15482Z" fill="white"/>
<path d="M23.485 5.72998H14.52C14.245 5.72998 14.02 5.50498 14.02 5.22998C14.02 4.95498 14.245 4.72998 14.52 4.72998H23.485C23.76 4.72998 23.985 4.95498 23.985 5.22998C23.985 5.50498 23.76 5.72998 23.485 5.72998Z" fill="#001149"/>
<path d="M23.485 8.14502H14.52C14.245 8.14502 14.02 7.92002 14.02 7.64502C14.02 7.37002 14.245 7.14502 14.52 7.14502H23.485C23.76 7.14502 23.985 7.37002 23.985 7.64502C23.985 7.92002 23.76 8.14502 23.485 8.14502Z" fill="#001149"/>
<path d="M23.485 10.5601H2.10498C1.82998 10.5601 1.60498 10.3351 1.60498 10.0601C1.60498 9.78506 1.82998 9.56006 2.10498 9.56006H23.485C23.76 9.56006 23.985 9.78506 23.985 10.0601C23.985 10.3351 23.76 10.5601 23.485 10.5601Z" fill="#001149"/>
</svg>
