<svg width="24" height="24" viewBox="0 0 24 24" fill="none" xmlns="http://www.w3.org/2000/svg">
<g clip-path="url(#clip0_7276_232263)">
<path d="M23.2916 12C23.2916 15.4903 21.7128 18.6054 19.235 20.6655C17.281 22.308 14.7535 23.2921 11.9996 23.2921C9.24557 23.2921 6.72522 22.308 4.76416 20.6655C2.28628 18.6054 0.70752 15.4903 0.70752 12C0.70752 5.76287 5.76239 0.708008 11.9996 0.708008C18.2367 0.708008 23.2916 5.76287 23.2916 12V12Z" fill="white"/>
<path d="M12 24C9.18938 24 6.45664 23.0089 4.3115 21.2106C1.57168 18.931 0 15.5752 0 12C0 5.38761 5.38053 0 12 0C18.6195 0 24 5.38053 24 12C24 15.5752 22.4283 18.931 19.6885 21.2106C17.5434 23.0089 14.8177 24 12 24V24ZM12 1.41593C6.16637 1.41593 1.41593 6.16637 1.41593 12C1.41593 15.1504 2.80354 18.1097 5.2177 20.1204C7.10796 21.7062 9.51504 22.5841 12 22.5841C14.485 22.5841 16.885 21.7133 18.7752 20.1274C21.1965 18.1168 22.5841 15.1575 22.5841 12C22.5841 6.16637 17.8336 1.41593 12 1.41593V1.41593Z" fill="#001149"/>
<path d="M12.0001 12.0775C13.7165 12.0775 15.108 10.686 15.108 8.96954C15.108 7.25306 13.7165 5.86157 12.0001 5.86157C10.2836 5.86157 8.89209 7.25306 8.89209 8.96954C8.89209 10.686 10.2836 12.0775 12.0001 12.0775Z" fill="white"/>
<path d="M11.999 12.7859C9.89638 12.7859 8.18311 11.0726 8.18311 8.96998C8.18311 6.86733 9.89638 5.15405 11.999 5.15405C14.1017 5.15405 15.815 6.86733 15.815 8.96998C15.815 11.0726 14.1017 12.7859 11.999 12.7859ZM11.999 6.56998C10.6751 6.56998 9.59903 7.64609 9.59903 8.96998C9.59903 10.2939 10.6751 11.37 11.999 11.37C13.3229 11.37 14.399 10.2939 14.399 8.96998C14.399 7.64609 13.3229 6.56998 11.999 6.56998Z" fill="#001149"/>
<path d="M19.2359 20.6659C17.282 22.3084 14.7545 23.2925 12.0005 23.2925C9.24655 23.2925 6.7262 22.3084 4.76514 20.6659C5.49434 17.3456 8.46071 14.8748 12.0005 14.8748C15.5404 14.8748 18.4997 17.3526 19.2359 20.6659Z" fill="white"/>
<path d="M11.9989 24.0004C9.18824 24.0004 6.4555 23.0092 4.31036 21.211C4.10505 21.0411 4.0201 20.7721 4.07674 20.5172C4.89089 16.8358 8.22541 14.1667 11.9989 14.1667C15.7723 14.1667 19.1068 16.8358 19.921 20.5172C19.9776 20.7721 19.8856 21.0411 19.6874 21.211C17.5422 23.0092 14.8166 24.0004 11.9989 24.0004ZM5.56346 20.4039C7.39709 21.8128 9.66258 22.5844 11.9989 22.5844C14.3351 22.5844 16.6006 21.8128 18.4343 20.4039C17.613 17.5862 14.9723 15.5827 11.9989 15.5827C9.02541 15.5827 6.3847 17.5862 5.56346 20.4039V20.4039Z" fill="#001149"/>
<path d="M12 16.7218C12.3831 16.7218 12.6938 16.4112 12.6938 16.028C12.6938 15.6449 12.3831 15.3342 12 15.3342C11.6168 15.3342 11.3062 15.6449 11.3062 16.028C11.3062 16.4112 11.6168 16.7218 12 16.7218Z" fill="white"/>
<path d="M11.9994 17.4295C11.2277 17.4295 10.5977 16.7994 10.5977 16.0277C10.5977 15.2561 11.2277 14.626 11.9994 14.626C12.7711 14.626 13.4012 15.2561 13.4012 16.0277C13.4012 16.7994 12.7711 17.4295 11.9994 17.4295ZM11.9853 16.0277C11.9853 16.0277 11.9853 16.0419 11.9994 16.0419L12.6932 16.0277H11.9853Z" fill="#001149"/>
<path d="M10.8447 19.7496L11.9987 22.9353L13.0677 19.7816L11.9987 16.5479L10.8447 19.7496Z" fill="white"/>
<path d="M11.9993 23.4689C11.6808 23.4689 11.3976 23.3088 11.3197 23.074L10.1657 19.8883C10.1303 19.7975 10.1303 19.7015 10.1657 19.6108L11.3197 16.409C11.4046 16.1742 11.6808 16.0142 11.9993 16.0142C12.325 16.0142 12.6011 16.1849 12.679 16.4197L13.748 19.6535C13.7763 19.7389 13.7763 19.8296 13.748 19.9149L12.679 23.0687C12.6011 23.3035 12.3179 23.4689 11.9993 23.4689ZM11.5816 19.7495L11.9781 20.8435L12.3392 19.7815L11.971 18.6716L11.5816 19.7495Z" fill="#001149"/>
</g>
<defs>
<clipPath id="clip0_7276_232263">
<rect width="24" height="24" fill="white"/>
</clipPath>
</defs>
</svg>
