<svg width="14" height="14" viewBox="0 0 14 14" fill="none" xmlns="http://www.w3.org/2000/svg">
<path d="M6.16 9.872V4.64H7.696V9.872H6.16ZM6.944 4.064C6.69867 4.064 6.496 4.00533 6.336 3.888C6.176 3.77067 6.096 3.584 6.096 3.328C6.096 3.04 6.176 2.848 6.336 2.752C6.496 2.64533 6.69867 2.592 6.944 2.592C7.15733 2.592 7.344 2.64533 7.504 2.752C7.67467 2.848 7.76 3.04 7.76 3.328C7.76 3.59467 7.67467 3.78667 7.504 3.904C7.344 4.01067 7.15733 4.064 6.944 4.064ZM6.928 13.856C5.968 13.856 5.06667 13.6747 4.224 13.312C3.392 12.96 2.656 12.4693 2.016 11.84C1.38667 11.2 0.890667 10.464 0.528 9.632C0.176 8.78933 0 7.888 0 6.928C0 5.968 0.176 5.072 0.528 4.24C0.890667 3.39733 1.38667 2.66133 2.016 2.032C2.656 1.392 3.392 0.896 4.224 0.544C5.06667 0.181333 5.968 0 6.928 0C7.888 0 8.784 0.181333 9.616 0.544C10.4587 0.896 11.1947 1.392 11.824 2.032C12.464 2.66133 12.96 3.39733 13.312 4.24C13.6747 5.072 13.856 5.968 13.856 6.928C13.856 7.888 13.6747 8.78933 13.312 9.632C12.96 10.464 12.464 11.2 11.824 11.84C11.1947 12.4693 10.4587 12.96 9.616 13.312C8.784 13.6747 7.888 13.856 6.928 13.856ZM6.928 12.432C7.696 12.432 8.41067 12.2933 9.072 12.016C9.73333 11.728 10.3147 11.3333 10.816 10.832C11.328 10.32 11.7227 9.73333 12 9.072C12.288 8.4 12.432 7.68533 12.432 6.928C12.432 6.16 12.288 5.44533 12 4.784C11.7227 4.12267 11.328 3.54133 10.816 3.04C10.3147 2.528 9.728 2.13333 9.056 1.856C8.39467 1.568 7.68533 1.424 6.928 1.424C6.16 1.424 5.44533 1.568 4.784 1.856C4.12267 2.13333 3.536 2.528 3.024 3.04C2.52267 3.54133 2.128 4.128 1.84 4.8C1.56267 5.46133 1.424 6.17067 1.424 6.928C1.424 7.696 1.56267 8.41067 1.84 9.072C2.128 9.73333 2.52267 10.32 3.024 10.832C3.536 11.3333 4.12267 11.728 4.784 12.016C5.456 12.2933 6.17067 12.432 6.928 12.432Z" fill="#875DD5"/>
</svg>
