<svg width="20" height="20" viewBox="0 0 20 20" fill="none" xmlns="http://www.w3.org/2000/svg">
<path d="M6.98328 9.99994L8.99161 12.0166L13.0166 7.98328" stroke="#000A26" stroke-width="1.5" stroke-linecap="round" stroke-linejoin="round"/>
<path d="M8.95828 2.04172C9.53328 1.55006 10.4749 1.55006 11.0583 2.04172L12.3749 3.17506C12.6249 3.39172 13.0916 3.56672 13.4249 3.56672H14.8416C15.7249 3.56672 16.4499 4.29172 16.4499 5.17506V6.59172C16.4499 6.91672 16.6249 7.39172 16.8416 7.64172L17.9749 8.95839C18.4666 9.53339 18.4666 10.4751 17.9749 11.0584L16.8416 12.3751C16.6249 12.6251 16.4499 13.0917 16.4499 13.4251V14.8417C16.4499 15.7251 15.7249 16.4501 14.8416 16.4501H13.4249C13.0999 16.4501 12.6249 16.6251 12.3749 16.8417L11.0583 17.9751C10.4833 18.4667 9.54161 18.4667 8.95828 17.9751L7.64161 16.8417C7.39161 16.6251 6.92494 16.4501 6.59161 16.4501H5.14994C4.26661 16.4501 3.54161 15.7251 3.54161 14.8417V13.4167C3.54161 13.0917 3.36661 12.6251 3.15828 12.3751L2.03328 11.0501C1.54994 10.4751 1.54994 9.54172 2.03328 8.96672L3.15828 7.64172C3.36661 7.39172 3.54161 6.92506 3.54161 6.60006V5.16672C3.54161 4.28339 4.26661 3.55839 5.14994 3.55839H6.59161C6.91661 3.55839 7.39161 3.38339 7.64161 3.16672L8.95828 2.04172Z" stroke="#000A26" stroke-width="1.5" stroke-linecap="round" stroke-linejoin="round"/>
</svg>
